<svg width="1560px" height="620px"
 viewBox="0.00 0.00 1559.90 620.00" xmlns="http://www.w3.org/2000/svg" xmlns:xlink="http://www.w3.org/1999/xlink">
<g id="graph0" class="graph" transform="scale(1.0 1.0) rotate(0) translate(4 616)">
<title>tree</title>
<polygon fill="white" stroke="transparent" points="-4,4 -4,-616 1555.9,-616 1555.9,4 -4,4"/>
<!-- 43 -->
<g id="node1" class="node">
<title>43</title>
<ellipse fill="none" stroke="black" cx="888.9" cy="-594" rx="27" ry="18"/>
<text text-anchor="middle" x="888.9" y="-590.3" font-family="Times,serif" font-size="14.00">SP</text>
</g>
<!-- 44 -->
<g id="node2" class="node">
<title>44</title>
<ellipse fill="none" stroke="black" cx="744.9" cy="-522" rx="61.19" ry="18"/>
<text text-anchor="middle" x="744.9" y="-518.3" font-family="Times,serif" font-size="14.00">PROGRAM</text>
</g>
<!-- 43&#45;&gt;44 -->
<g id="edge1" class="edge">
<title>43&#45;&gt;44</title>
<path fill="none" stroke="black" d="M867.65,-582.67C845.81,-572.06 811.31,-555.28 784.44,-542.22"/>
<polygon fill="black" stroke="black" points="785.81,-538.99 775.28,-537.77 782.75,-545.29 785.81,-538.99"/>
</g>
<!-- 42 -->
<g id="node3" class="node">
<title>42</title>
<ellipse fill="none" stroke="black" cx="850.9" cy="-522" rx="27" ry="18"/>
<text text-anchor="middle" x="850.9" y="-518.3" font-family="Times,serif" font-size="14.00">ST</text>
</g>
<!-- 43&#45;&gt;42 -->
<g id="edge2" class="edge">
<title>43&#45;&gt;42</title>
<path fill="none" stroke="black" d="M880.08,-576.76C875.48,-568.28 869.74,-557.71 864.58,-548.2"/>
<polygon fill="black" stroke="black" points="867.51,-546.27 859.66,-539.15 861.36,-549.61 867.51,-546.27"/>
</g>
<!-- 45 -->
<g id="node45" class="node">
<title>45</title>
<ellipse fill="none" stroke="black" cx="927.9" cy="-522" rx="32.49" ry="18"/>
<text text-anchor="middle" x="927.9" y="-518.3" font-family="Times,serif" font-size="14.00">END</text>
</g>
<!-- 43&#45;&gt;45 -->
<g id="edge3" class="edge">
<title>43&#45;&gt;45</title>
<path fill="none" stroke="black" d="M897.94,-576.76C902.6,-568.4 908.39,-558.02 913.63,-548.61"/>
<polygon fill="black" stroke="black" points="916.82,-550.07 918.63,-539.63 910.71,-546.67 916.82,-550.07"/>
</g>
<!-- 46 -->
<g id="node46" class="node">
<title>46</title>
<ellipse fill="none" stroke="black" cx="1039.9" cy="-522" rx="61.19" ry="18"/>
<text text-anchor="middle" x="1039.9" y="-518.3" font-family="Times,serif" font-size="14.00">PROGRAM</text>
</g>
<!-- 43&#45;&gt;46 -->
<g id="edge4" class="edge">
<title>43&#45;&gt;46</title>
<path fill="none" stroke="black" d="M910.53,-582.97C933.61,-572.27 970.7,-555.08 999.26,-541.84"/>
<polygon fill="black" stroke="black" points="1000.99,-544.9 1008.59,-537.51 998.04,-538.54 1000.99,-544.9"/>
</g>
<!-- 28 -->
<g id="node4" class="node">
<title>28</title>
<ellipse fill="none" stroke="black" cx="780.9" cy="-450" rx="27" ry="18"/>
<text text-anchor="middle" x="780.9" y="-446.3" font-family="Times,serif" font-size="14.00">ST</text>
</g>
<!-- 42&#45;&gt;28 -->
<g id="edge5" class="edge">
<title>42&#45;&gt;28</title>
<path fill="none" stroke="black" d="M836.39,-506.5C826.63,-496.73 813.59,-483.69 802.6,-472.7"/>
<polygon fill="black" stroke="black" points="804.93,-470.08 795.38,-465.49 799.98,-475.03 804.93,-470.08"/>
</g>
<!-- 41 -->
<g id="node32" class="node">
<title>41</title>
<ellipse fill="none" stroke="black" cx="920.9" cy="-450" rx="27" ry="18"/>
<text text-anchor="middle" x="920.9" y="-446.3" font-family="Times,serif" font-size="14.00">TD</text>
</g>
<!-- 42&#45;&gt;41 -->
<g id="edge6" class="edge">
<title>42&#45;&gt;41</title>
<path fill="none" stroke="black" d="M865.4,-506.5C875.16,-496.73 888.21,-483.69 899.2,-472.7"/>
<polygon fill="black" stroke="black" points="901.82,-475.03 906.41,-465.49 896.87,-470.08 901.82,-475.03"/>
</g>
<!-- 14 -->
<g id="node5" class="node">
<title>14</title>
<ellipse fill="none" stroke="black" cx="708.9" cy="-378" rx="27" ry="18"/>
<text text-anchor="middle" x="708.9" y="-374.3" font-family="Times,serif" font-size="14.00">ST</text>
</g>
<!-- 28&#45;&gt;14 -->
<g id="edge7" class="edge">
<title>28&#45;&gt;14</title>
<path fill="none" stroke="black" d="M766.33,-434.83C756.15,-424.94 742.37,-411.55 730.87,-400.36"/>
<polygon fill="black" stroke="black" points="733.3,-397.85 723.69,-393.38 728.42,-402.87 733.3,-397.85"/>
</g>
<!-- 27 -->
<g id="node19" class="node">
<title>27</title>
<ellipse fill="none" stroke="black" cx="780.9" cy="-378" rx="27" ry="18"/>
<text text-anchor="middle" x="780.9" y="-374.3" font-family="Times,serif" font-size="14.00">TD</text>
</g>
<!-- 28&#45;&gt;27 -->
<g id="edge8" class="edge">
<title>28&#45;&gt;27</title>
<path fill="none" stroke="black" d="M780.9,-431.7C780.9,-423.98 780.9,-414.71 780.9,-406.11"/>
<polygon fill="black" stroke="black" points="784.4,-406.1 780.9,-396.1 777.4,-406.1 784.4,-406.1"/>
</g>
<!-- 13 -->
<g id="node6" class="node">
<title>13</title>
<ellipse fill="none" stroke="black" cx="644.9" cy="-306" rx="27" ry="18"/>
<text text-anchor="middle" x="644.9" y="-302.3" font-family="Times,serif" font-size="14.00">TD</text>
</g>
<!-- 14&#45;&gt;13 -->
<g id="edge9" class="edge">
<title>14&#45;&gt;13</title>
<path fill="none" stroke="black" d="M695.32,-362.15C686.58,-352.6 675.06,-339.99 665.24,-329.25"/>
<polygon fill="black" stroke="black" points="667.78,-326.84 658.45,-321.82 662.62,-331.57 667.78,-326.84"/>
</g>
<!-- 12 -->
<g id="node7" class="node">
<title>12</title>
<ellipse fill="none" stroke="black" cx="515.9" cy="-234" rx="27" ry="18"/>
<text text-anchor="middle" x="515.9" y="-230.3" font-family="Times,serif" font-size="14.00">D</text>
</g>
<!-- 13&#45;&gt;12 -->
<g id="edge10" class="edge">
<title>13&#45;&gt;12</title>
<path fill="none" stroke="black" d="M624.46,-293.91C603.13,-282.34 569.5,-264.09 545.32,-250.97"/>
<polygon fill="black" stroke="black" points="546.7,-247.73 536.24,-246.04 543.36,-253.89 546.7,-247.73"/>
</g>
<!-- 3 -->
<g id="node8" class="node">
<title>3</title>
<ellipse fill="none" stroke="black" cx="402.9" cy="-162" rx="27" ry="18"/>
<text text-anchor="middle" x="402.9" y="-158.3" font-family="Times,serif" font-size="14.00">VD</text>
</g>
<!-- 12&#45;&gt;3 -->
<g id="edge11" class="edge">
<title>12&#45;&gt;3</title>
<path fill="none" stroke="black" d="M496.73,-221.13C478.63,-209.91 451.27,-192.97 430.76,-180.26"/>
<polygon fill="black" stroke="black" points="432.5,-177.22 422.16,-174.93 428.82,-183.17 432.5,-177.22"/>
</g>
<!-- 4 -->
<g id="node9" class="node">
<title>4</title>
<ellipse fill="none" stroke="black" cx="29.9" cy="-90" rx="29.8" ry="18"/>
<text text-anchor="middle" x="29.9" y="-86.3" font-family="Times,serif" font-size="14.00">VAR</text>
</g>
<!-- 3&#45;&gt;4 -->
<g id="edge12" class="edge">
<title>3&#45;&gt;4</title>
<path fill="none" stroke="black" d="M375.98,-159.06C318.56,-154.41 180.2,-140.51 68.9,-108 66.62,-107.34 64.31,-106.57 62,-105.74"/>
<polygon fill="black" stroke="black" points="63.22,-102.46 52.63,-102.06 60.66,-108.98 63.22,-102.46"/>
</g>
<!-- 5 -->
<g id="node10" class="node">
<title>5</title>
<ellipse fill="none" stroke="black" cx="104.9" cy="-90" rx="27" ry="18"/>
<text text-anchor="middle" x="104.9" y="-86.3" font-family="Times,serif" font-size="14.00">:</text>
</g>
<!-- 3&#45;&gt;5 -->
<g id="edge13" class="edge">
<title>3&#45;&gt;5</title>
<path fill="none" stroke="black" d="M376.32,-157.79C328.37,-151.51 224.58,-135.77 140.9,-108 138.98,-107.36 137.03,-106.65 135.08,-105.89"/>
<polygon fill="black" stroke="black" points="136.06,-102.5 125.49,-101.76 133.29,-108.93 136.06,-102.5"/>
</g>
<!-- 6 -->
<g id="node11" class="node">
<title>6</title>
<ellipse fill="none" stroke="black" cx="202.9" cy="-90" rx="52.79" ry="18"/>
<text text-anchor="middle" x="202.9" y="-86.3" font-family="Times,serif" font-size="14.00">DOUBLE</text>
</g>
<!-- 3&#45;&gt;6 -->
<g id="edge14" class="edge">
<title>3&#45;&gt;6</title>
<path fill="none" stroke="black" d="M379.56,-152.83C347.42,-141.58 288.85,-121.08 248,-106.78"/>
<polygon fill="black" stroke="black" points="249.13,-103.47 238.54,-103.47 246.82,-110.08 249.13,-103.47"/>
</g>
<!-- 7 -->
<g id="node12" class="node">
<title>7</title>
<ellipse fill="none" stroke="black" cx="300.9" cy="-90" rx="27" ry="18"/>
<text text-anchor="middle" x="300.9" y="-86.3" font-family="Times,serif" font-size="14.00">::</text>
</g>
<!-- 3&#45;&gt;7 -->
<g id="edge15" class="edge">
<title>3&#45;&gt;7</title>
<path fill="none" stroke="black" d="M384.66,-148.49C368.71,-137.54 345.33,-121.49 327.33,-109.14"/>
<polygon fill="black" stroke="black" points="329.2,-106.18 318.98,-103.41 325.24,-111.95 329.2,-106.18"/>
</g>
<!-- 8 -->
<g id="node13" class="node">
<title>8</title>
<ellipse fill="none" stroke="black" cx="402.9" cy="-90" rx="56.59" ry="18"/>
<text text-anchor="middle" x="402.9" y="-86.3" font-family="Times,serif" font-size="14.00">NUMERO</text>
</g>
<!-- 3&#45;&gt;8 -->
<g id="edge16" class="edge">
<title>3&#45;&gt;8</title>
<path fill="none" stroke="black" d="M402.9,-143.7C402.9,-135.98 402.9,-126.71 402.9,-118.11"/>
<polygon fill="black" stroke="black" points="406.4,-118.1 402.9,-108.1 399.4,-118.1 406.4,-118.1"/>
</g>
<!-- 9 -->
<g id="node14" class="node">
<title>9</title>
<ellipse fill="none" stroke="black" cx="504.9" cy="-90" rx="27" ry="18"/>
<text text-anchor="middle" x="504.9" y="-86.3" font-family="Times,serif" font-size="14.00">&lt;&#45;</text>
</g>
<!-- 3&#45;&gt;9 -->
<g id="edge17" class="edge">
<title>3&#45;&gt;9</title>
<path fill="none" stroke="black" d="M421.13,-148.49C437.09,-137.54 460.46,-121.49 478.47,-109.14"/>
<polygon fill="black" stroke="black" points="480.55,-111.95 486.82,-103.41 476.59,-106.18 480.55,-111.95"/>
</g>
<!-- 1 -->
<g id="node15" class="node">
<title>1</title>
<ellipse fill="none" stroke="black" cx="576.9" cy="-90" rx="27" ry="18"/>
<text text-anchor="middle" x="576.9" y="-86.3" font-family="Times,serif" font-size="14.00">EX</text>
</g>
<!-- 3&#45;&gt;1 -->
<g id="edge18" class="edge">
<title>3&#45;&gt;1</title>
<path fill="none" stroke="black" d="M424.06,-150.57C428.89,-148.31 434.04,-146 438.9,-144 483.36,-125.71 496.44,-126.29 540.9,-108 542.72,-107.25 544.58,-106.46 546.45,-105.64"/>
<polygon fill="black" stroke="black" points="548.07,-108.75 555.74,-101.43 545.18,-102.37 548.07,-108.75"/>
</g>
<!-- 10 -->
<g id="node17" class="node">
<title>10</title>
<ellipse fill="none" stroke="black" cx="653.9" cy="-90" rx="32.49" ry="18"/>
<text text-anchor="middle" x="653.9" y="-86.3" font-family="Times,serif" font-size="14.00">END</text>
</g>
<!-- 3&#45;&gt;10 -->
<g id="edge19" class="edge">
<title>3&#45;&gt;10</title>
<path fill="none" stroke="black" d="M423.49,-150.25C428.44,-147.96 433.78,-145.71 438.9,-144 513.79,-118.96 537.42,-131.23 612.9,-108 615.2,-107.29 617.54,-106.5 619.9,-105.67"/>
<polygon fill="black" stroke="black" points="621.36,-108.85 629.46,-102.02 618.87,-102.31 621.36,-108.85"/>
</g>
<!-- 11 -->
<g id="node18" class="node">
<title>11</title>
<ellipse fill="none" stroke="black" cx="730.9" cy="-90" rx="27" ry="18"/>
<text text-anchor="middle" x="730.9" y="-86.3" font-family="Times,serif" font-size="14.00">;</text>
</g>
<!-- 3&#45;&gt;11 -->
<g id="edge20" class="edge">
<title>3&#45;&gt;11</title>
<path fill="none" stroke="black" d="M423.42,-150.01C428.37,-147.73 433.73,-145.54 438.9,-144 548.98,-111.1 584.81,-140.9 694.9,-108 696.83,-107.42 698.8,-106.75 700.76,-106.02"/>
<polygon fill="black" stroke="black" points="702.51,-109.08 710.38,-101.99 699.8,-102.63 702.51,-109.08"/>
</g>
<!-- 2 -->
<g id="node16" class="node">
<title>2</title>
<ellipse fill="none" stroke="black" cx="576.9" cy="-18" rx="27" ry="18"/>
<text text-anchor="middle" x="576.9" y="-14.3" font-family="Times,serif" font-size="14.00">2.5</text>
</g>
<!-- 1&#45;&gt;2 -->
<g id="edge21" class="edge">
<title>1&#45;&gt;2</title>
<path fill="none" stroke="black" d="M576.9,-71.7C576.9,-63.98 576.9,-54.71 576.9,-46.11"/>
<polygon fill="black" stroke="black" points="580.4,-46.1 576.9,-36.1 573.4,-46.1 580.4,-46.1"/>
</g>
<!-- 26 -->
<g id="node20" class="node">
<title>26</title>
<ellipse fill="none" stroke="black" cx="780.9" cy="-306" rx="27" ry="18"/>
<text text-anchor="middle" x="780.9" y="-302.3" font-family="Times,serif" font-size="14.00">D</text>
</g>
<!-- 27&#45;&gt;26 -->
<g id="edge22" class="edge">
<title>27&#45;&gt;26</title>
<path fill="none" stroke="black" d="M780.9,-359.7C780.9,-351.98 780.9,-342.71 780.9,-334.11"/>
<polygon fill="black" stroke="black" points="784.4,-334.1 780.9,-324.1 777.4,-334.1 784.4,-334.1"/>
</g>
<!-- 17 -->
<g id="node21" class="node">
<title>17</title>
<ellipse fill="none" stroke="black" cx="780.9" cy="-234" rx="27" ry="18"/>
<text text-anchor="middle" x="780.9" y="-230.3" font-family="Times,serif" font-size="14.00">VD</text>
</g>
<!-- 26&#45;&gt;17 -->
<g id="edge23" class="edge">
<title>26&#45;&gt;17</title>
<path fill="none" stroke="black" d="M780.9,-287.7C780.9,-279.98 780.9,-270.71 780.9,-262.11"/>
<polygon fill="black" stroke="black" points="784.4,-262.1 780.9,-252.1 777.4,-262.1 784.4,-262.1"/>
</g>
<!-- 18 -->
<g id="node22" class="node">
<title>18</title>
<ellipse fill="none" stroke="black" cx="477.9" cy="-162" rx="29.8" ry="18"/>
<text text-anchor="middle" x="477.9" y="-158.3" font-family="Times,serif" font-size="14.00">VAR</text>
</g>
<!-- 17&#45;&gt;18 -->
<g id="edge24" class="edge">
<title>17&#45;&gt;18</title>
<path fill="none" stroke="black" d="M754.58,-229.61C706.56,-223.02 601.85,-206.71 516.9,-180 514.64,-179.29 512.33,-178.49 510.03,-177.64"/>
<polygon fill="black" stroke="black" points="511.27,-174.36 500.68,-173.9 508.67,-180.86 511.27,-174.36"/>
</g>
<!-- 19 -->
<g id="node23" class="node">
<title>19</title>
<ellipse fill="none" stroke="black" cx="552.9" cy="-162" rx="27" ry="18"/>
<text text-anchor="middle" x="552.9" y="-158.3" font-family="Times,serif" font-size="14.00">:</text>
</g>
<!-- 17&#45;&gt;19 -->
<g id="edge25" class="edge">
<title>17&#45;&gt;19</title>
<path fill="none" stroke="black" d="M755.61,-227.48C718.47,-219.06 647.25,-201.65 588.9,-180 587.05,-179.31 585.17,-178.57 583.28,-177.79"/>
<polygon fill="black" stroke="black" points="584.52,-174.51 573.96,-173.68 581.7,-180.92 584.52,-174.51"/>
</g>
<!-- 20 -->
<g id="node24" class="node">
<title>20</title>
<ellipse fill="none" stroke="black" cx="642.9" cy="-162" rx="45.49" ry="18"/>
<text text-anchor="middle" x="642.9" y="-158.3" font-family="Times,serif" font-size="14.00">CHAR[]</text>
</g>
<!-- 17&#45;&gt;20 -->
<g id="edge26" class="edge">
<title>17&#45;&gt;20</title>
<path fill="none" stroke="black" d="M759.94,-222.37C738.45,-211.47 704.62,-194.31 678.84,-181.23"/>
<polygon fill="black" stroke="black" points="680.25,-178.02 669.75,-176.62 677.09,-184.27 680.25,-178.02"/>
</g>
<!-- 21 -->
<g id="node25" class="node">
<title>21</title>
<ellipse fill="none" stroke="black" cx="732.9" cy="-162" rx="27" ry="18"/>
<text text-anchor="middle" x="732.9" y="-158.3" font-family="Times,serif" font-size="14.00">::</text>
</g>
<!-- 17&#45;&gt;21 -->
<g id="edge27" class="edge">
<title>17&#45;&gt;21</title>
<path fill="none" stroke="black" d="M770.01,-217.12C763.93,-208.26 756.24,-197.04 749.43,-187.12"/>
<polygon fill="black" stroke="black" points="752.29,-185.09 743.75,-178.82 746.51,-189.05 752.29,-185.09"/>
</g>
<!-- 22 -->
<g id="node26" class="node">
<title>22</title>
<ellipse fill="none" stroke="black" cx="829.9" cy="-162" rx="51.99" ry="18"/>
<text text-anchor="middle" x="829.9" y="-158.3" font-family="Times,serif" font-size="14.00">CADENA</text>
</g>
<!-- 17&#45;&gt;22 -->
<g id="edge28" class="edge">
<title>17&#45;&gt;22</title>
<path fill="none" stroke="black" d="M791.77,-217.46C797.79,-208.87 805.42,-197.97 812.27,-188.19"/>
<polygon fill="black" stroke="black" points="815.16,-190.16 818.02,-179.96 809.42,-186.15 815.16,-190.16"/>
</g>
<!-- 23 -->
<g id="node27" class="node">
<title>23</title>
<ellipse fill="none" stroke="black" cx="926.9" cy="-162" rx="27" ry="18"/>
<text text-anchor="middle" x="926.9" y="-158.3" font-family="Times,serif" font-size="14.00">&lt;&#45;</text>
</g>
<!-- 17&#45;&gt;23 -->
<g id="edge29" class="edge">
<title>17&#45;&gt;23</title>
<path fill="none" stroke="black" d="M802.13,-222.82C827,-210.9 868.38,-191.06 896.61,-177.52"/>
<polygon fill="black" stroke="black" points="898.14,-180.67 905.64,-173.19 895.11,-174.36 898.14,-180.67"/>
</g>
<!-- 15 -->
<g id="node28" class="node">
<title>15</title>
<ellipse fill="none" stroke="black" cx="998.9" cy="-162" rx="27" ry="18"/>
<text text-anchor="middle" x="998.9" y="-158.3" font-family="Times,serif" font-size="14.00">EX</text>
</g>
<!-- 17&#45;&gt;15 -->
<g id="edge30" class="edge">
<title>17&#45;&gt;15</title>
<path fill="none" stroke="black" d="M801.54,-222.39C806.49,-220.09 811.82,-217.81 816.9,-216 879.87,-193.62 899.92,-202.38 962.9,-180 964.8,-179.32 966.74,-178.58 968.68,-177.79"/>
<polygon fill="black" stroke="black" points="970.49,-180.82 978.25,-173.61 967.69,-174.41 970.49,-180.82"/>
</g>
<!-- 24 -->
<g id="node30" class="node">
<title>24</title>
<ellipse fill="none" stroke="black" cx="1075.9" cy="-162" rx="32.49" ry="18"/>
<text text-anchor="middle" x="1075.9" y="-158.3" font-family="Times,serif" font-size="14.00">END</text>
</g>
<!-- 17&#45;&gt;24 -->
<g id="edge31" class="edge">
<title>17&#45;&gt;24</title>
<path fill="none" stroke="black" d="M801.44,-222.1C806.4,-219.81 811.75,-217.61 816.9,-216 910.64,-186.75 940.48,-206.98 1034.9,-180 1037.21,-179.34 1039.57,-178.59 1041.93,-177.77"/>
<polygon fill="black" stroke="black" points="1043.37,-180.97 1051.51,-174.18 1040.92,-174.42 1043.37,-180.97"/>
</g>
<!-- 25 -->
<g id="node31" class="node">
<title>25</title>
<ellipse fill="none" stroke="black" cx="1152.9" cy="-162" rx="27" ry="18"/>
<text text-anchor="middle" x="1152.9" y="-158.3" font-family="Times,serif" font-size="14.00">;</text>
</g>
<!-- 17&#45;&gt;25 -->
<g id="edge32" class="edge">
<title>17&#45;&gt;25</title>
<path fill="none" stroke="black" d="M801.39,-221.94C806.35,-219.65 811.72,-217.49 816.9,-216 945.95,-178.85 987.85,-217.15 1116.9,-180 1118.84,-179.44 1120.81,-178.79 1122.77,-178.07"/>
<polygon fill="black" stroke="black" points="1124.51,-181.14 1132.4,-174.06 1121.82,-174.67 1124.51,-181.14"/>
</g>
<!-- 16 -->
<g id="node29" class="node">
<title>16</title>
<ellipse fill="none" stroke="black" cx="998.9" cy="-90" rx="61.19" ry="18"/>
<text text-anchor="middle" x="998.9" y="-86.3" font-family="Times,serif" font-size="14.00">“CADENA”</text>
</g>
<!-- 15&#45;&gt;16 -->
<g id="edge33" class="edge">
<title>15&#45;&gt;16</title>
<path fill="none" stroke="black" d="M998.9,-143.7C998.9,-135.98 998.9,-126.71 998.9,-118.11"/>
<polygon fill="black" stroke="black" points="1002.4,-118.1 998.9,-108.1 995.4,-118.1 1002.4,-118.1"/>
</g>
<!-- 40 -->
<g id="node33" class="node">
<title>40</title>
<ellipse fill="none" stroke="black" cx="1057.9" cy="-378" rx="27" ry="18"/>
<text text-anchor="middle" x="1057.9" y="-374.3" font-family="Times,serif" font-size="14.00">D</text>
</g>
<!-- 41&#45;&gt;40 -->
<g id="edge34" class="edge">
<title>41&#45;&gt;40</title>
<path fill="none" stroke="black" d="M941.7,-438.37C964.64,-426.65 1001.73,-407.7 1027.82,-394.37"/>
<polygon fill="black" stroke="black" points="1029.58,-397.4 1036.89,-389.73 1026.4,-391.16 1029.58,-397.4"/>
</g>
<!-- 31 -->
<g id="node34" class="node">
<title>31</title>
<ellipse fill="none" stroke="black" cx="1169.9" cy="-306" rx="27" ry="18"/>
<text text-anchor="middle" x="1169.9" y="-302.3" font-family="Times,serif" font-size="14.00">VD</text>
</g>
<!-- 40&#45;&gt;31 -->
<g id="edge35" class="edge">
<title>40&#45;&gt;31</title>
<path fill="none" stroke="black" d="M1076.9,-365.13C1094.84,-353.91 1121.95,-336.97 1142.28,-324.26"/>
<polygon fill="black" stroke="black" points="1144.18,-327.2 1150.8,-318.93 1140.47,-321.26 1144.18,-327.2"/>
</g>
<!-- 32 -->
<g id="node35" class="node">
<title>32</title>
<ellipse fill="none" stroke="black" cx="855.9" cy="-234" rx="29.8" ry="18"/>
<text text-anchor="middle" x="855.9" y="-230.3" font-family="Times,serif" font-size="14.00">VAR</text>
</g>
<!-- 31&#45;&gt;32 -->
<g id="edge36" class="edge">
<title>31&#45;&gt;32</title>
<path fill="none" stroke="black" d="M1143.26,-301.85C1093.59,-295.56 983.83,-279.58 894.9,-252 892.64,-251.3 890.33,-250.51 888.02,-249.66"/>
<polygon fill="black" stroke="black" points="889.26,-246.38 878.67,-245.93 886.67,-252.88 889.26,-246.38"/>
</g>
<!-- 33 -->
<g id="node36" class="node">
<title>33</title>
<ellipse fill="none" stroke="black" cx="930.9" cy="-234" rx="27" ry="18"/>
<text text-anchor="middle" x="930.9" y="-230.3" font-family="Times,serif" font-size="14.00">:</text>
</g>
<!-- 31&#45;&gt;33 -->
<g id="edge37" class="edge">
<title>31&#45;&gt;33</title>
<path fill="none" stroke="black" d="M1144.44,-299.95C1105.52,-291.87 1029.21,-274.62 966.9,-252 965.05,-251.33 963.16,-250.59 961.27,-249.82"/>
<polygon fill="black" stroke="black" points="962.5,-246.54 951.94,-245.74 959.7,-252.95 962.5,-246.54"/>
</g>
<!-- 34 -->
<g id="node37" class="node">
<title>34</title>
<ellipse fill="none" stroke="black" cx="1028.9" cy="-234" rx="52.79" ry="18"/>
<text text-anchor="middle" x="1028.9" y="-230.3" font-family="Times,serif" font-size="14.00">DOUBLE</text>
</g>
<!-- 31&#45;&gt;34 -->
<g id="edge38" class="edge">
<title>31&#45;&gt;34</title>
<path fill="none" stroke="black" d="M1148.79,-294.52C1127.07,-283.74 1092.79,-266.72 1066.44,-253.64"/>
<polygon fill="black" stroke="black" points="1067.99,-250.5 1057.48,-249.19 1064.88,-256.77 1067.99,-250.5"/>
</g>
<!-- 35 -->
<g id="node38" class="node">
<title>35</title>
<ellipse fill="none" stroke="black" cx="1126.9" cy="-234" rx="27" ry="18"/>
<text text-anchor="middle" x="1126.9" y="-230.3" font-family="Times,serif" font-size="14.00">::</text>
</g>
<!-- 31&#45;&gt;35 -->
<g id="edge39" class="edge">
<title>31&#45;&gt;35</title>
<path fill="none" stroke="black" d="M1160.14,-289.12C1154.75,-280.34 1147.95,-269.26 1141.9,-259.42"/>
<polygon fill="black" stroke="black" points="1144.83,-257.51 1136.62,-250.82 1138.87,-261.17 1144.83,-257.51"/>
</g>
<!-- 36 -->
<g id="node39" class="node">
<title>36</title>
<ellipse fill="none" stroke="black" cx="1212.9" cy="-234" rx="40.89" ry="18"/>
<text text-anchor="middle" x="1212.9" y="-230.3" font-family="Times,serif" font-size="14.00">COPIA</text>
</g>
<!-- 31&#45;&gt;36 -->
<g id="edge40" class="edge">
<title>31&#45;&gt;36</title>
<path fill="none" stroke="black" d="M1179.65,-289.12C1184.84,-280.68 1191.33,-270.1 1197.2,-260.55"/>
<polygon fill="black" stroke="black" points="1200.33,-262.15 1202.58,-251.8 1194.36,-258.49 1200.33,-262.15"/>
</g>
<!-- 37 -->
<g id="node40" class="node">
<title>37</title>
<ellipse fill="none" stroke="black" cx="1298.9" cy="-234" rx="27" ry="18"/>
<text text-anchor="middle" x="1298.9" y="-230.3" font-family="Times,serif" font-size="14.00">&lt;&#45;</text>
</g>
<!-- 31&#45;&gt;37 -->
<g id="edge41" class="edge">
<title>31&#45;&gt;37</title>
<path fill="none" stroke="black" d="M1190.34,-293.91C1211.66,-282.34 1245.29,-264.09 1269.47,-250.97"/>
<polygon fill="black" stroke="black" points="1271.43,-253.89 1278.55,-246.04 1268.09,-247.73 1271.43,-253.89"/>
</g>
<!-- 29 -->
<g id="node41" class="node">
<title>29</title>
<ellipse fill="none" stroke="black" cx="1370.9" cy="-234" rx="27" ry="18"/>
<text text-anchor="middle" x="1370.9" y="-230.3" font-family="Times,serif" font-size="14.00">EX</text>
</g>
<!-- 31&#45;&gt;29 -->
<g id="edge42" class="edge">
<title>31&#45;&gt;29</title>
<path fill="none" stroke="black" d="M1194.29,-298.25C1226.8,-289 1285.92,-271.33 1334.9,-252 1336.73,-251.28 1338.6,-250.5 1340.48,-249.7"/>
<polygon fill="black" stroke="black" points="1342.08,-252.82 1349.78,-245.53 1339.22,-246.43 1342.08,-252.82"/>
</g>
<!-- 38 -->
<g id="node43" class="node">
<title>38</title>
<ellipse fill="none" stroke="black" cx="1447.9" cy="-234" rx="32.49" ry="18"/>
<text text-anchor="middle" x="1447.9" y="-230.3" font-family="Times,serif" font-size="14.00">END</text>
</g>
<!-- 31&#45;&gt;38 -->
<g id="edge43" class="edge">
<title>31&#45;&gt;38</title>
<path fill="none" stroke="black" d="M1195.89,-300.71C1239.92,-293.11 1331.73,-275.79 1406.9,-252 1409.19,-251.27 1411.53,-250.47 1413.88,-249.62"/>
<polygon fill="black" stroke="black" points="1415.36,-252.81 1423.44,-245.95 1412.85,-246.27 1415.36,-252.81"/>
</g>
<!-- 39 -->
<g id="node44" class="node">
<title>39</title>
<ellipse fill="none" stroke="black" cx="1524.9" cy="-234" rx="27" ry="18"/>
<text text-anchor="middle" x="1524.9" y="-230.3" font-family="Times,serif" font-size="14.00">;</text>
</g>
<!-- 31&#45;&gt;39 -->
<g id="edge44" class="edge">
<title>31&#45;&gt;39</title>
<path fill="none" stroke="black" d="M1196.95,-303.04C1252.67,-298.45 1383.87,-284.82 1488.9,-252 1490.83,-251.4 1492.79,-250.71 1494.74,-249.97"/>
<polygon fill="black" stroke="black" points="1496.51,-253.02 1504.35,-245.89 1493.78,-246.57 1496.51,-253.02"/>
</g>
<!-- 30 -->
<g id="node42" class="node">
<title>30</title>
<ellipse fill="none" stroke="black" cx="1370.9" cy="-162" rx="56.59" ry="18"/>
<text text-anchor="middle" x="1370.9" y="-158.3" font-family="Times,serif" font-size="14.00">NUMERO</text>
</g>
<!-- 29&#45;&gt;30 -->
<g id="edge45" class="edge">
<title>29&#45;&gt;30</title>
<path fill="none" stroke="black" d="M1370.9,-215.7C1370.9,-207.98 1370.9,-198.71 1370.9,-190.11"/>
<polygon fill="black" stroke="black" points="1374.4,-190.1 1370.9,-180.1 1367.4,-190.1 1374.4,-190.1"/>
</g>
</g>
</svg>
